<svg width="384" height="312" viewBox="0 0 384 312" fill="none" xmlns="http://www.w3.org/2000/svg">
<path d="M290.375 177H12.625C5.65598 177 0 167.592 0 156C0 144.408 5.65598 135 12.625 135H290.375C297.344 135 303 144.408 303 156C303 167.592 297.344 177 290.375 177Z" fill="#F9F9F9"/>
<path d="M368 44.3079L16 44.3079C7.16797 44.3079 0 34.383 0 22.1539C0 9.92493 7.16797 0 16 0L368 0C376.832 0 384 9.92493 384 22.1539C384 34.383 376.832 44.3079 368 44.3079Z" fill="#F9F9F9"/>
<path d="M368 311.308H16C7.16797 311.308 0 301.383 0 289.154C0 276.925 7.16797 267 16 267H368C376.832 267 384 276.925 384 289.154C384 301.383 376.832 311.308 368 311.308Z" fill="#F9F9F9"/>
</svg>
