<svg width="584" height="704" viewBox="0 0 584 704" fill="none" xmlns="http://www.w3.org/2000/svg">
<path d="M209 700.5C67.4924 704.359 5.50006 685 3 644.5C31.0504 488.19 190.371 327.883 198 298.999C205.629 270.114 213.718 245.205 214 232.5C220.093 225.908 224.066 228.405 226.656 234.579L214 135.5C195.218 97.9035 194.713 82.1147 209 61.9999C244.938 43.6909 328.498 223.315 327.5 232.5C326.501 241.685 314.256 273.013 316 289.5C304.184 337.1 361.547 507.126 347.224 507.989C332.9 508.852 321.728 504.156 283.724 523.989C261.327 542.82 241.246 557.729 220 567.052C217.994 567.932 210.995 566.302 209 567.052V700.5Z" fill="#5A8D3E"/>
<path d="M209 567.052C187.437 548.778 194.197 529.64 220 472.499C227.533 434.235 230.333 412.963 231.5 375.499C238.682 357.448 242.979 360.541 251 383.5V436.5C251 501 227.404 493.049 220 567.052M209 567.052C210.995 566.302 217.994 567.932 220 567.052M209 567.052V700.5C67.4924 704.359 5.50006 685 3 644.5C31.0504 488.19 190.371 327.883 198 298.999C205.629 270.114 213.718 245.205 214 232.5C231.944 213.088 231.5 272.501 231.5 272.501M231.5 272.501L245.5 317M231.5 272.501L214 135.5C195.218 97.9035 194.713 82.1147 209 61.9999C244.938 43.6909 328.498 223.315 327.5 232.5C326.501 241.685 314.256 273.013 316 289.5C304.184 337.1 361.547 507.126 347.224 507.989C332.9 508.852 321.728 504.156 283.724 523.989C261.327 542.82 241.246 557.729 220 567.052" stroke="#1B2312" stroke-width="5"/>
<path d="M58 638C101.01 580.557 138.899 558.89 202 561" stroke="#243919" stroke-width="5"/>
<path d="M208.5 700.167C67.2064 703.928 3.97998 698.812 3 639.167C43.8389 625.708 161.78 659.201 208.5 664.082V700.167Z" fill="#293A22"/>
<path d="M219.879 473.659C194.076 530.801 187.316 549.938 208.879 568.212C210.874 567.462 217.874 567.092 219.879 566.212C227.283 492.21 250.879 502.16 250.879 437.66V384.66C242.858 361.701 238.561 358.609 231.379 376.659C230.213 414.123 227.413 435.396 219.879 473.659Z" fill="#E5E5E5" stroke="#1B2312" stroke-width="3"/>
<path d="M208 567V700.448" stroke="#1B2312" stroke-width="3"/>
<path d="M348.5 506C336.5 510 326.004 500.667 288 520.5" stroke="#5A8D3E" stroke-width="5"/>
<path d="M217 566.999C240.125 558.303 263.99 540.608 288.5 520" stroke="#5A8D3E" stroke-width="5"/>
<path d="M454.5 503C507.285 493.216 544.517 490.677 581.5 520V610V700.5H562.5H212.5V570C230.961 566.613 240.145 562.24 253.5 548C315.886 491.122 401.715 512.784 454.5 503Z" fill="#0641FF"/>
<path d="M297.5 548C357.592 511.745 399.066 511.199 482 533M562.5 700.5H581.5V520C544.517 490.677 507.285 493.216 454.5 503C401.715 512.784 315.886 491.122 253.5 548C240.145 562.24 230.961 566.613 212.5 570V700.5H562.5ZM562.5 700.5C559.18 657.625 560.386 635.737 581.5 610" stroke="#002092" stroke-width="4"/>
<path d="M427.5 699C212 682.5 281.5 663 212 663V699H427.5Z" fill="#0D2160" stroke="#0D2160"/>
<path d="M221 563.552C229.5 490.5 252 498.5 252 434" stroke="#5A8D3E" stroke-width="5"/>
<path d="M252 434V382.5" stroke="#5A8D3E" stroke-width="5"/>
<path d="M231 374.659C238.182 356.608 242.979 360.541 251 383.5" stroke="#5A8D3E" stroke-width="5"/>
<path d="M229.5 13.5003V66.0002C258.449 93.0616 294 156 294 156C294 156 293.74 131.575 294 57C283.632 44.063 277.314 27.8245 265.5 13.5003C251.441 1.04404 243.559 -1.92151 229.5 13.5003Z" fill="#5A8D3E" stroke="#1B2312" stroke-width="5"/>
</svg>
