<svg width="999" height="1013" viewBox="0 0 999 1013" fill="none" xmlns="http://www.w3.org/2000/svg">
<path d="M577.986 119.554C684.477 59.3223 750.469 52.7812 820.548 119.554C842.996 149.173 848.149 166.546 857.239 197.543C889.177 214.483 906.263 226.783 936.041 251.107L958.973 277.675L972.732 307.242L978.153 329.096V373.662V384.803L968.563 406.228L943.546 438.795L907.272 465.791L880.171 472.648C880.171 472.648 880.254 489.73 876.835 497.93C925.926 539.448 940.819 560.509 943.546 615.342L958.973 631.197V657.764L936.041 684.761L913.943 707.043L922.282 719.898L913.943 745.181L876.835 762.321L841.395 769.177L827.636 790.603L787.609 815.885L730.07 838.596L697.132 851.451L680.454 861.736L618.746 897.302H543.279H448.216H397.765L382.338 886.589C242.119 886.906 133.005 861.736 76.7179 790.603L48.7826 748.18V475.647C84.0453 342.354 111.188 294.464 178.452 277.675C234.74 153.407 255.17 98.1289 360.24 58.2775C449.994 44.9627 505.599 55.3169 577.986 119.554Z" fill="#5B8B40"/>
<path d="M178.452 277.675C234.74 153.407 255.17 98.1289 360.24 58.2775C449.994 44.9627 505.599 55.3169 577.987 119.554M178.452 277.675C111.188 294.464 84.0453 342.354 48.7826 475.647V748.18M178.452 277.675C169.039 310.706 173.371 331.537 170.947 359.092M577.987 119.554C584.992 125.641 589.736 130.913 594.98 137.98C602.607 152.049 605.122 160.122 606.655 174.832V203.114M577.987 119.554C684.477 59.3223 750.469 52.7812 820.548 119.554C842.996 149.173 848.149 166.546 857.239 197.544M48.7826 748.18L76.7179 790.603C133.005 861.736 242.119 886.906 382.338 886.589M48.7826 748.18C66.3148 784.602 185.264 822.088 382.338 886.589M606.655 203.114L562.876 174.832L517.429 158.549L460.724 153.407L416.528 158.549L370.664 174.832L327.302 201.4M606.655 203.114C704.637 164.12 755.921 174.832 857.239 197.544M606.655 203.114C617.495 211.256 636.69 221.148 641.678 230.539C665.861 251.107 662.121 252.114 680.454 277.675M857.239 197.544C889.177 214.483 906.263 226.783 936.041 251.107L958.973 277.675L972.732 307.242L978.153 329.096V373.661L974.153 388.803L960.563 414.228L940.546 438.795L903.272 465.791L880.171 472.648M880.171 472.648C880.171 472.648 880.254 489.73 876.835 497.93C925.926 539.448 940.819 560.509 943.546 615.342L958.973 631.197V657.764L936.041 684.76L913.943 707.043L922.282 719.898L913.943 745.181L876.835 762.321L841.395 769.177L827.636 790.603L787.609 815.885L730.07 838.596L697.132 851.451L680.454 861.736M880.171 472.648C859.39 490.806 840.452 497.058 787.609 497.93C737.594 499.799 718.132 486.601 689.04 441.651M680.454 861.736H511.174H390.677L382.338 886.589M680.454 861.736L618.746 897.302H543.279H448.216H397.765L382.338 886.589M299.783 347.522C357.455 434.378 419.321 463.48 577.987 483.36" stroke="black" stroke-width="5"/>
<path d="M305.621 286.245C397.765 133.695 642.095 212.113 670.447 296.53C715.477 169.262 953.136 202.257 978.57 321.812C981.538 388.963 967.304 406.051 938.543 439.652C909.782 473.253 693.902 510.198 680.454 415.656C667.946 488.502 346.481 458.078 295.614 332.524C222.219 283.694 249.27 291.219 305.621 286.245Z" fill="#FEFEFE"/>
<path d="M670.447 296.53C642.095 212.113 397.765 133.695 305.621 286.245C249.27 291.219 222.219 283.694 295.614 332.524C346.481 458.078 667.946 488.502 680.454 415.656M670.447 296.53C677.41 310.196 680.236 317.328 684.207 329.525C688.178 341.722 689.21 374.947 689.21 374.947L680.454 415.656M670.447 296.53C715.477 169.262 953.136 202.257 978.57 321.812C981.538 388.963 967.304 406.051 938.543 439.652C909.782 473.253 693.902 510.198 680.454 415.656" stroke="black" stroke-width="5"/>
<path d="M922.282 728.897C920.614 736.039 911.942 753.065 890.594 764.035H836.809C826.246 801.034 717.888 846.737 717.888 846.737L845.147 845.024L880.171 821.027L903.937 785.461L922.282 764.035L958.973 742.181L984.407 728.897L989.41 704.472H952.719L943.546 674.048L922.282 689.046V704.472V728.897Z" fill="#5C8B3D"/>
<path d="M390.26 852.737C390.26 786.318 367.619 794.797 282.689 764.464C271.737 750.423 272.923 732.35 272.265 708.329C271.796 668.143 280.187 624.769 255.17 635.482C257.965 626.116 232.575 648.361 224.316 676.619C216.058 704.878 216.693 704.316 211.808 719.042C199.439 713.854 198.474 699.245 204.303 672.763C208.862 646.702 204.303 614.057 190.961 608.486C170.53 617.056 166.858 647.09 156.354 672.763C147.298 694.285 142.601 701.111 137.175 672.763L132.172 641.053C133.153 585.6 123.937 582.531 93.3957 635.482V665.049V689.903L79.6365 708.329V735.325C88.3114 785.698 96.2175 788.193 121.331 812.886L137.175 831.74L150.517 842.453L170.53 849.309L181.371 852.737L190.961 871.592L211.808 897.731L224.316 905.873L255.17 920.013C307.177 931.395 390.26 919.156 390.26 852.737Z" fill="#5C8B3D"/>
<path d="M922.282 728.897C920.614 736.039 911.942 753.065 890.594 764.035H836.809C826.246 801.034 707.888 848.737 707.888 848.737L845.147 845.024L880.171 821.027L903.937 785.461L922.282 764.035L958.973 742.181L984.407 728.897L989.41 704.472H952.719L943.546 674.048L922.282 689.046V704.472V728.897Z" stroke="black" stroke-width="5"/>
<path d="M390.26 852.737C390.26 786.318 367.619 794.797 282.689 764.464C271.737 750.423 272.923 732.35 272.265 708.329C271.796 668.143 279.517 627.287 254.5 638C250 639.927 232.575 648.361 224.316 676.619C216.058 704.878 216.693 704.316 211.808 719.042C199.439 713.854 198.474 699.245 204.303 672.763C208.862 646.702 204.303 614.057 190.961 608.486C170.53 617.056 166.858 647.09 156.354 672.763C147.298 694.285 142.601 701.111 137.175 672.763L132.172 641.053C133.153 585.6 123.937 582.531 93.3957 635.482V665.049V689.903L79.6365 708.329V735.325C88.3114 785.698 96.2175 788.193 121.331 812.886L137.175 831.74L150.517 842.453L170.53 849.309L181.371 852.737L190.961 871.592L211.808 897.731L224.316 905.873L255.17 920.013C307.177 931.395 390.26 919.156 390.26 852.737Z" stroke="black" stroke-width="5"/>
<path d="M870.998 968.006L855.571 986.861H671.698H369.83H150.1H48.3657V957.294V882.304V838.596C53.0756 812.017 57.514 800.525 72.1316 792.745L104.236 824.884L133.006 838.596L164.276 847.595L183.456 858.308L194.296 882.304L222.649 910.586L257.672 923.441L296.448 928.441L342.312 918.441L360.657 910.586L383.837 891.159L398.599 901.159L481.988 901.587H542.029H610.407L654.187 882.304L671.698 871.592L687.542 862.593L700.051 895.159L710.891 865.592V851.451H731.322H756.338H834.724L870.998 834.884L885.008 820.886L886.008 882.304L882.256 918.299L870.998 942.296V968.006Z" fill="#0641FD"/>
<path d="M150.1 986.861H48.3657V957.294V882.304V838.596C53.0756 812.017 57.514 800.525 72.1316 792.745L104.236 824.884L133.006 838.596L157.605 848L180.456 858.308L194.296 882.304M150.1 986.861L194.296 882.304M150.1 986.861L161.605 960.722L170.948 938.868L183.042 910.586L194.296 882.304M150.1 986.861H369.83M194.296 882.304L205.473 896.445L222.649 910.586L257.672 923.441L296.448 927.441L342.312 919.441L360.657 910.586M369.83 986.861L365.244 942.296L360.657 910.586M369.83 986.861L360.657 910.586M369.83 986.861H671.698M360.657 910.586L383.837 890.159L398.599 900.159L481.988 901.587H542.028H610.407L621 900L654.187 882.304L671.698 871.592L687.542 861.593L700.051 895.159M671.698 986.861H855.571L870.998 968.006V942.296L882.255 918.299L886.008 882.304V818.886L878.998 826.884L850.861 847.168L834.724 849.451L756.338 851.451H731.321H710.891V865.592L700.051 895.159M671.698 986.861L700.051 895.159M671.698 986.861L681.157 957.294L695.051 910.586L700.051 895.159" stroke="#002092" stroke-width="5"/>
<path d="M318.129 503.5C545.364 722.469 840.127 661.587 936.041 622.626L945.631 618.341H954.804L963.56 631.625V644.052V659.907L954.804 673.191L928.536 691.188L922.282 698.901L928.536 722.469L922.282 742.609L916.445 751.608L899.767 764.035H890.594C594.321 763.46 383.206 789.66 250.167 581.061V533.496L258.089 510.785L261.841 503.5L266.845 495.359L272.265 489.788L281.021 486.36H283.522H289.36L295.614 489.788L318.129 503.5Z" fill="#AF593B"/>
<path d="M305.204 565.206C408.635 689.398 540.48 721.384 922.282 704.472M936.041 622.626C840.127 661.587 545.364 722.469 318.129 503.5L295.614 489.788L289.36 486.36H283.522H281.021L272.265 489.788L266.845 495.359L261.841 503.5L258.089 510.785L250.167 533.496V581.061C383.206 789.66 594.321 763.46 890.594 764.035H899.767L916.445 751.608L922.282 742.609L928.536 722.469L922.282 698.901L928.536 691.188L954.804 673.191L963.56 659.907V644.052V631.625L954.804 618.341H945.631L936.041 622.626Z" stroke="black" stroke-width="5"/>
<path d="M579.553 292.245C579.553 213.399 426.118 206.114 439.877 292.245C453.636 378.375 579.553 371.091 579.553 292.245Z" fill="black" stroke="black" stroke-width="10"/>
<path d="M914.777 320.098C895.598 252.393 784.69 233.967 798.45 320.098C812.209 406.228 933.956 387.803 914.777 320.098Z" fill="black" stroke="black" stroke-width="10"/>
<path d="M484.49 303.386C484.073 294.816 487.408 293.53 491.578 291.816C498.666 291.816 503.253 294.816 503.253 303.386C503.253 311.956 498.666 314.956 491.578 314.956C487.408 313.242 484.073 311.956 484.49 303.386Z" fill="#EEEDEB" stroke="black" stroke-width="5"/>
<path d="M835.591 334.667C835.174 326.097 838.51 324.811 842.679 323.097C849.767 323.097 854.353 326.097 854.353 334.667C854.353 343.237 849.767 346.237 842.679 346.237C838.51 344.523 835.174 343.237 835.591 334.667Z" fill="#EEEDEB" stroke="black" stroke-width="5"/>
<path d="M821.416 295.244C820.999 286.674 824.335 285.388 828.505 283.674C835.591 283.674 840.177 286.674 840.177 295.244C840.177 303.814 835.591 306.814 828.505 306.814C824.335 305.1 820.999 303.814 821.416 295.244Z" fill="#EEEDEB" stroke="black" stroke-width="5"/>
<path d="M863.952 307.671C863.418 298.149 867.713 296.72 873.074 294.816C882.189 294.816 888.093 298.149 888.093 307.671C888.093 317.193 882.189 320.526 873.074 320.526C867.713 318.622 863.418 317.193 863.952 307.671Z" fill="#EEEDEB" stroke="black" stroke-width="5"/>
<path d="M480.355 256.678C479.939 248.108 483.274 246.822 487.444 245.108C494.532 245.108 499.118 248.108 499.118 256.678C499.118 265.248 494.532 268.248 487.444 268.248C483.274 266.534 479.939 265.248 480.355 256.678Z" fill="#EEEDEB" stroke="black" stroke-width="5"/>
<path d="M534.523 294.816C541.892 294.816 547.866 288.293 547.866 280.246C547.866 272.2 541.892 265.677 534.523 265.677C527.155 265.677 521.181 272.2 521.181 280.246C521.181 288.293 527.155 294.816 534.523 294.816Z" fill="#EEEDEB"/>
<path d="M528.269 282.817C530.342 282.817 532.022 281.091 532.022 278.961C532.022 276.831 530.342 275.104 528.269 275.104C526.197 275.104 524.517 276.831 524.517 278.961C524.517 281.091 526.197 282.817 528.269 282.817Z" fill="#C4C4C4"/>
<path d="M537.025 285.388C538.407 285.388 539.527 284.237 539.527 282.817C539.527 281.397 538.407 280.246 537.025 280.246C535.643 280.246 534.523 281.397 534.523 282.817C534.523 284.237 535.643 285.388 537.025 285.388Z" fill="#C4C4C4"/>
<path d="M532.022 292.244C533.403 292.244 534.523 290.518 534.523 288.388C534.523 286.258 533.403 284.531 532.022 284.531C530.64 284.531 529.52 286.258 529.52 288.388C529.52 290.518 530.64 292.244 532.022 292.244Z" fill="#C4C4C4"/>
<path d="M872.249 308.528C874.091 308.528 875.584 307.185 875.584 305.528C875.584 303.872 874.091 302.529 872.249 302.529C870.407 302.529 868.913 303.872 868.913 305.528C868.913 307.185 870.407 308.528 872.249 308.528Z" fill="#C4C4C4"/>
<path d="M880.588 311.099C881.969 311.099 883.089 310.14 883.089 308.957C883.089 307.773 881.969 306.814 880.588 306.814C879.206 306.814 878.086 307.773 878.086 308.957C878.086 310.14 879.206 311.099 880.588 311.099Z" fill="#C4C4C4"/>
<path d="M876.001 316.241C877.153 316.241 878.086 314.898 878.086 313.241C878.086 311.585 877.153 310.242 876.001 310.242C874.85 310.242 873.917 311.585 873.917 313.241C873.917 314.898 874.85 316.241 876.001 316.241Z" fill="#C4C4C4"/>
</svg>
