<svg width="356" height="251" viewBox="0 0 356 251" fill="none" xmlns="http://www.w3.org/2000/svg">
<path d="M258.398 29.6231C283.085 14.6988 298.384 13.0781 314.63 29.6231C319.834 36.962 321.029 41.2666 323.136 48.9471C330.54 53.1442 334.501 56.1919 341.404 62.2191L346.721 68.802L349.91 76.1282L351.167 81.5431V92.5854V95.346L348.944 100.655L343.144 108.724L334.735 115.413L328.452 117.112C328.452 117.112 328.471 121.345 327.679 123.376C339.06 133.664 342.512 138.882 343.144 152.469L346.721 156.397V162.98L341.404 169.669L336.282 175.19L338.215 178.376L336.282 184.64L327.679 188.887L319.463 190.586L316.273 195.895L306.994 202.159L293.655 207.786L286.019 210.972L282.152 213.52L267.847 222.332H250.352H228.313H216.618L213.041 219.678C180.535 219.757 155.239 213.52 142.19 195.895L135.714 185.383V117.855C143.889 84.828 150.181 72.962 165.775 68.802C178.824 38.011 183.56 24.3143 207.918 14.4399C228.726 11.1408 241.616 13.7064 258.398 29.6231Z" fill="#5B8B40"/>
<path d="M165.775 68.802C178.824 38.011 183.56 24.3143 207.918 14.4399C228.726 11.1408 241.616 13.7064 258.398 29.6231M165.775 68.802C150.181 72.962 143.889 84.828 135.714 117.855V185.383M165.775 68.802C163.593 76.9865 164.597 82.1479 164.035 88.9755M258.398 29.6231C260.022 31.1312 261.122 32.4374 262.337 34.1887C264.105 37.6745 264.689 39.6748 265.044 43.3198V50.3274M258.398 29.6231C283.085 14.6988 298.384 13.0781 314.63 29.6231C319.834 36.962 321.029 41.2666 323.136 48.9471M135.714 185.383L142.19 195.895C155.239 213.52 180.535 219.757 213.041 219.678M135.714 185.383C139.778 194.408 167.354 203.696 213.041 219.678M265.044 50.3274L254.895 43.3198L244.359 39.2851L231.213 38.011L220.967 39.2851L210.335 43.3198L200.282 49.9027M265.044 50.3274C287.759 40.6654 299.648 43.3198 323.136 48.9471M265.044 50.3274C267.557 52.3447 272.007 54.7957 273.163 57.1227C278.769 62.2191 277.902 62.4686 282.152 68.802M323.136 48.9471C330.54 53.1443 334.501 56.1919 341.404 62.2191L346.721 68.802L349.91 76.1282L351.167 81.5431V92.5854L350.24 96.3371L347.089 102.637L342.449 108.724L333.808 115.413L328.452 117.112M328.452 117.112C328.452 117.112 328.471 121.345 327.679 123.376C339.06 133.664 342.512 138.882 343.144 152.469L346.721 156.397V162.98L341.404 169.669L336.282 175.19L338.215 178.376L336.282 184.64L327.679 188.887L319.463 190.586L316.273 195.895L306.994 202.159L293.655 207.786L286.019 210.972L282.152 213.52M328.452 117.112C323.635 121.611 319.244 123.161 306.994 123.376C295.399 123.84 290.887 120.57 284.143 109.432M282.152 213.52H242.909H214.974L213.041 219.678M282.152 213.52L267.847 222.332H250.352H228.313H216.618L213.041 219.678M193.903 86.1087C207.273 107.63 221.615 114.841 258.398 119.766" stroke="black" stroke-width="2"/>
<path d="M195.256 70.9255C216.617 33.1269 273.26 52.5571 279.833 73.4738C290.272 41.9395 345.367 50.1151 351.264 79.7381C351.952 96.3768 348.652 100.611 341.984 108.937C335.317 117.262 285.27 126.416 282.152 102.991C279.253 121.041 204.728 113.502 192.936 82.3925C175.921 70.2934 182.192 72.158 195.256 70.9255Z" fill="#FEFEFE"/>
<path d="M279.833 73.4738C273.26 52.5571 216.617 33.1269 195.256 70.9255C182.192 72.158 175.921 70.2934 192.936 82.3925C204.728 113.502 279.253 121.041 282.152 102.991M279.833 73.4738C281.447 76.8599 282.102 78.6271 283.022 81.6493C283.943 84.6715 284.182 92.904 284.182 92.904L282.152 102.991M279.833 73.4738C290.272 41.9395 345.367 50.1151 351.264 79.7381C351.952 96.3768 348.652 100.611 341.984 108.937C335.317 117.262 285.27 126.416 282.152 102.991" stroke="black" stroke-width="2"/>
<path d="M338.215 180.605C337.828 182.375 335.818 186.594 330.869 189.312H318.4C315.951 198.479 290.831 209.803 290.831 209.803L320.333 209.379L328.452 203.433L333.962 194.621L338.215 189.312L346.721 183.897L352.617 180.605L353.777 174.553H345.271L343.144 167.015L338.215 170.731V174.553V180.605Z" fill="#5C8B3D"/>
<path d="M214.878 211.29C214.878 194.833 209.629 196.934 189.94 189.418C187.401 185.939 187.676 181.461 187.523 175.509C187.414 165.552 189.36 154.805 183.56 157.459C184.208 155.138 178.322 160.65 176.407 167.652C174.493 174.654 174.64 174.515 173.508 178.163C170.64 176.878 170.416 173.258 171.768 166.696C172.825 160.239 171.768 152.15 168.675 150.77C163.938 152.894 163.087 160.335 160.652 166.696C158.552 172.029 157.463 173.721 156.206 166.696L155.046 158.839C155.273 145.099 153.137 144.339 146.056 157.459V164.785V170.943L142.867 175.509V182.198C144.878 194.679 146.711 195.298 152.532 201.416L156.206 206.088L159.299 208.742L163.938 210.441L166.451 211.29L168.675 215.962L173.508 222.439L176.407 224.456L183.56 227.96C195.617 230.78 214.878 227.748 214.878 211.29Z" fill="#5C8B3D"/>
<path d="M338.215 180.605C337.828 182.375 335.818 186.594 330.869 189.312H318.4C315.951 198.479 288.512 210.299 288.512 210.299L320.333 209.379L328.452 203.433L333.962 194.621L338.215 189.312L346.721 183.897L352.617 180.605L353.777 174.553H345.271L343.144 167.015L338.215 170.731V174.553V180.605Z" stroke="black" stroke-width="2"/>
<path d="M214.878 211.29C214.878 194.833 209.629 196.934 189.94 189.418C187.401 185.939 187.676 181.461 187.523 175.509C187.414 165.552 189.204 155.429 183.405 158.083C182.361 158.56 178.322 160.65 176.407 167.652C174.493 174.654 174.64 174.515 173.508 178.163C170.64 176.878 170.416 173.258 171.768 166.696C172.825 160.239 171.768 152.15 168.675 150.77C163.938 152.894 163.087 160.335 160.652 166.696C158.552 172.029 157.463 173.721 156.206 166.696L155.046 158.839C155.273 145.099 153.137 144.339 146.056 157.459V164.785V170.943L142.867 175.509V182.198C144.878 194.679 146.711 195.298 152.532 201.416L156.206 206.088L159.299 208.742L163.938 210.441L166.451 211.29L168.675 215.962L173.508 222.439L176.407 224.456L183.56 227.96C195.617 230.78 214.878 227.748 214.878 211.29Z" stroke="black" stroke-width="2"/>
<path d="M326.326 239.851L322.749 244.523H280.122H210.141H159.202H135.617V237.197V218.616V207.786C136.709 201.201 137.738 198.353 141.127 196.426L148.569 204.389L155.239 207.786L162.488 210.016L166.935 212.67L169.448 218.616L176.021 225.624L184.14 228.809L193.129 230.048L203.762 227.57L208.015 225.624L213.388 220.81L216.811 223.288L236.143 223.394H250.061H265.914L276.063 218.616L280.122 215.962L283.796 213.732L286.695 221.802L289.208 214.475V210.972H293.945H299.744H317.916L326.326 206.867L329.573 203.398L329.805 218.616L328.935 227.535L326.326 233.481V239.851Z" fill="#0641FD"/>
<path d="M159.202 244.523H135.617V237.197V218.616V207.786C136.709 201.201 137.738 198.353 141.127 196.426L148.569 204.389L155.239 207.786L160.942 210.116L166.239 212.67L169.448 218.616M159.202 244.523L169.448 218.616M159.202 244.523L161.869 238.047L164.035 232.632L166.839 225.624L169.448 218.616M159.202 244.523H210.141M169.448 218.616L172.039 222.12L176.021 225.624L184.14 228.809L193.129 229.8L203.762 227.818L208.015 225.624M210.141 244.523L209.078 233.481L208.015 225.624M210.141 244.523L208.015 225.624M210.141 244.523H280.122M208.015 225.624L213.388 220.563L216.811 223.04L236.143 223.394H250.061H265.914L268.369 223.001L276.063 218.616L280.122 215.962L283.796 213.485L286.695 221.802M280.122 244.523H322.749L326.326 239.851V233.481L328.935 227.535L329.805 218.616V202.903L328.18 204.884L321.657 209.91L317.916 210.476L299.744 210.972H293.945H289.208V214.475L286.695 221.802M280.122 244.523L286.695 221.802M280.122 244.523L282.315 237.197L285.536 225.624L286.695 221.802" stroke="#002092" stroke-width="2"/>
<path d="M198.156 124.757C250.835 179.013 319.169 163.927 341.404 154.274L343.628 153.212H345.754L347.784 156.503V159.582V163.511L345.754 166.802L339.665 171.262L338.215 173.173L339.665 179.013L338.215 184.003L336.861 186.233L332.995 189.312H330.869C262.184 189.169 213.242 195.661 182.4 143.975V132.189L184.237 126.562L185.107 124.757L186.267 122.739L187.523 121.359L189.553 120.51H190.133H191.486L192.936 121.359L198.156 124.757Z" fill="#AF593B"/>
<path d="M195.159 140.046C219.137 170.818 249.703 178.744 338.215 174.553M341.404 154.274C319.169 163.927 250.835 179.013 198.156 124.757L192.936 121.359L191.486 120.51H190.133H189.553L187.523 121.359L186.267 122.739L185.107 124.757L184.237 126.562L182.4 132.189V143.975C213.242 195.661 262.184 189.169 330.869 189.312H332.995L336.861 186.233L338.215 184.003L339.665 179.013L338.215 173.173L339.665 171.262L345.754 166.802L347.784 163.511V159.582V156.503L345.754 153.212H343.628L341.404 154.274Z" stroke="black" stroke-width="2"/>
<path d="M258.761 72.4121C258.761 52.8757 223.19 51.0707 226.38 72.4121C229.57 93.7534 258.761 91.9485 258.761 72.4121Z" fill="black" stroke="black" stroke-width="5"/>
<path d="M336.475 79.3135C332.028 62.5377 306.317 57.9721 309.507 79.3135C312.697 100.655 340.921 96.0893 336.475 79.3135Z" fill="black" stroke="black" stroke-width="5"/>
<path d="M236.723 75.1726C236.626 73.0491 237.399 72.7306 238.366 72.3058C240.009 72.3058 241.072 73.0491 241.072 75.1726C241.072 77.2961 240.009 78.0393 238.366 78.0393C237.399 77.6146 236.626 77.2961 236.723 75.1726Z" fill="#EEEDEB" stroke="black" stroke-width="2"/>
<path d="M318.117 82.9234C318.021 80.7999 318.794 80.4814 319.761 80.0567C321.404 80.0567 322.467 80.7999 322.467 82.9234C322.467 85.047 321.404 85.7902 319.761 85.7902C318.794 85.3655 318.021 85.047 318.117 82.9234Z" fill="#EEEDEB" stroke="black" stroke-width="2"/>
<path d="M314.831 73.1553C314.735 71.0317 315.508 70.7132 316.475 70.2885C318.117 70.2885 319.181 71.0317 319.181 73.1553C319.181 75.2788 318.117 76.022 316.475 76.022C315.508 75.5973 314.735 75.2788 314.831 73.1553Z" fill="#EEEDEB" stroke="black" stroke-width="2"/>
<path d="M324.692 76.2343C324.568 73.8749 325.564 73.5209 326.807 73.0491C328.92 73.0491 330.289 73.8749 330.289 76.2343C330.289 78.5938 328.92 79.4196 326.807 79.4196C325.564 78.9478 324.568 78.5938 324.692 76.2343Z" fill="#EEEDEB" stroke="black" stroke-width="2"/>
<path d="M235.764 63.5994C235.667 61.4758 236.441 61.1573 237.407 60.7326C239.05 60.7326 240.114 61.4758 240.114 63.5994C240.114 65.7229 239.05 66.4661 237.407 66.4661C236.441 66.0414 235.667 65.7229 235.764 63.5994Z" fill="#EEEDEB" stroke="black" stroke-width="2"/>
<path d="M248.322 73.0491C250.03 73.0491 251.415 71.4328 251.415 69.4391C251.415 67.4453 250.03 65.8291 248.322 65.8291C246.613 65.8291 245.229 67.4453 245.229 69.4391C245.229 71.4328 246.613 73.0491 248.322 73.0491Z" fill="#EEEDEB"/>
<path d="M246.872 70.0761C247.352 70.0761 247.742 69.6483 247.742 69.1206C247.742 68.5928 247.352 68.165 246.872 68.165C246.391 68.165 246.002 68.5928 246.002 69.1206C246.002 69.6483 246.391 70.0761 246.872 70.0761Z" fill="#C4C4C4"/>
<path d="M248.902 70.7132C249.222 70.7132 249.482 70.428 249.482 70.0761C249.482 69.7243 249.222 69.4391 248.902 69.4391C248.581 69.4391 248.322 69.7243 248.322 70.0761C248.322 70.428 248.581 70.7132 248.902 70.7132Z" fill="#C4C4C4"/>
<path d="M247.742 72.412C248.062 72.412 248.322 71.9842 248.322 71.4564C248.322 70.9287 248.062 70.5009 247.742 70.5009C247.421 70.5009 247.162 70.9287 247.162 71.4564C247.162 71.9842 247.421 72.412 247.742 72.412Z" fill="#C4C4C4"/>
<path d="M326.616 76.4467C327.043 76.4467 327.389 76.1139 327.389 75.7034C327.389 75.293 327.043 74.9602 326.616 74.9602C326.188 74.9602 325.842 75.293 325.842 75.7034C325.842 76.1139 326.188 76.4467 326.616 76.4467Z" fill="#C4C4C4"/>
<path d="M328.549 77.0837C328.869 77.0837 329.129 76.8461 329.129 76.5529C329.129 76.2597 328.869 76.022 328.549 76.022C328.229 76.022 327.969 76.2597 327.969 76.5529C327.969 76.8461 328.229 77.0837 328.549 77.0837Z" fill="#C4C4C4"/>
<path d="M327.485 78.3578C327.752 78.3578 327.969 78.025 327.969 77.6146C327.969 77.2041 327.752 76.8713 327.485 76.8713C327.219 76.8713 327.002 77.2041 327.002 77.6146C327.002 78.025 327.219 78.3578 327.485 78.3578Z" fill="#C4C4C4"/>
<path d="M49.7564 244.434C16.9511 245.39 2.57958 240.593 2 230.558C8.50285 191.828 45.4377 152.107 47.2063 144.95C48.9749 137.793 50.8501 131.621 50.9155 128.473C52.328 126.84 53.2491 127.459 53.8495 128.989L50.9155 104.439C46.5613 95.1232 46.4443 91.2111 49.7564 86.227C58.0878 81.6905 77.4594 126.197 77.2279 128.473C76.9964 130.749 74.1575 138.512 74.5619 142.597C71.8227 154.391 85.121 196.52 81.8004 196.734C78.4799 196.948 75.8898 195.784 67.0794 200.698C61.8873 205.364 57.0001 208.811 52.0746 211.121C51.6097 211.339 50.2188 211.182 49.7564 211.368V244.434Z" fill="#5A8D3E"/>
<path d="M49.7564 211.368C44.7574 206.84 46.3246 202.099 52.3065 187.94C54.0529 178.459 54.702 173.188 54.9725 163.905C56.6375 159.433 57.6337 160.199 59.4931 165.888V179.02C59.4931 195.002 53.7911 192.784 52.0746 211.121M49.7564 211.368C50.2188 211.182 51.6097 211.339 52.0746 211.121M49.7564 211.368V244.434C16.9511 245.39 2.57958 240.593 2 230.558C8.50285 191.828 45.4377 152.107 47.2063 144.95C48.9749 137.793 50.8501 131.621 50.9155 128.473C55.0754 123.663 54.9725 138.385 54.9725 138.385M54.9725 138.385L58.2181 149.411M54.9725 138.385L50.9155 104.439C46.5613 95.1232 46.4443 91.2111 49.7564 86.227C58.0878 81.6905 77.4594 126.197 77.2279 128.473C76.9964 130.749 74.1575 138.512 74.5619 142.597C71.8227 154.391 85.121 196.52 81.8004 196.734C78.4799 196.948 75.8898 195.784 67.0794 200.698C61.8873 205.364 57.0001 208.811 52.0746 211.121" stroke="#1B2312" stroke-width="2"/>
<path d="M14.7505 228.948C24.7213 214.715 33.505 209.346 48.1336 209.869" stroke="#243919" stroke-width="2"/>
<path d="M49.6405 244.351C16.8848 245.283 2.22719 244.016 2 229.237C11.4676 225.902 38.8095 234.201 49.6405 235.41V244.351Z" fill="#293A22"/>
<path d="M52.2785 188.227C46.2967 202.386 44.7295 207.128 49.7284 211.656C50.1908 211.47 51.8136 211.378 52.2785 211.16C53.9949 192.824 59.4652 195.289 59.4652 179.308V166.175C57.6057 160.487 56.6096 159.72 54.9445 164.193C54.6741 173.476 54.025 178.747 52.2785 188.227Z" fill="#24252A" stroke="#1B2312"/>
<path d="M49.5245 211.355V244.421" stroke="#1B2312" stroke-width="3"/>
<path d="M82.0963 196.241C79.3144 197.232 76.8812 194.919 68.0708 199.834" stroke="#5A8D3E" stroke-width="5"/>
<path d="M52.0746 210.612C57.4355 208.457 62.5044 204.816 68.1866 199.71" stroke="#5A8D3E" stroke-width="5"/>
<path d="M106.67 195.497C118.907 193.073 127.538 192.444 136.112 199.71V222.01V244.434H131.707H50.5679V212.099C54.8476 211.259 56.9767 210.176 60.0728 206.648C74.5356 192.554 94.4331 197.922 106.67 195.497Z" fill="#0641FF"/>
<path d="M70.2732 206.648C84.2041 197.664 93.8189 197.529 113.045 202.931M131.707 244.434H136.112V199.71C127.538 192.444 118.907 193.073 106.67 195.497C94.4331 197.922 74.5356 192.554 60.0728 206.648C56.9767 210.176 54.8476 211.259 50.5679 212.099V244.434H131.707ZM131.707 244.434C130.938 233.81 131.217 228.387 136.112 222.01" stroke="#002092" stroke-width="2"/>
<path d="M100.411 244.062C50.4519 239.974 66.5639 235.142 50.4519 235.142V244.062H100.411Z" fill="#0D2160" stroke="#0D2160"/>
<path d="M52.5383 210.501C54.5089 192.4 59.725 194.382 59.725 178.4M54.3929 208.134C56.3635 190.033 60.6523 194.493 60.6523 178.512" stroke="#5A8D3E" stroke-width="5"/>
<path d="M59.4932 191.285C59.8746 173.122 60.8841 175.111 60.8841 159.074" stroke="#5A8D3E" stroke-width="5"/>
<path d="M59.725 178.401V165.64" stroke="#5A8D3E" stroke-width="5"/>
<path d="M54.8566 163.697C56.5216 159.225 57.8655 160.199 59.7249 165.888" stroke="#5A8D3E" stroke-width="5"/>
<path d="M53.9293 162.414C55.9908 157.093 57.6546 158.252 59.9568 165.021" stroke="#5A8D3E" stroke-width="5"/>
<path d="M54.5088 74.2098V87.2182C61.2201 93.9234 69.4616 109.518 69.4616 109.518C69.4616 109.518 69.4014 103.466 69.4616 84.9881C67.0581 81.7826 65.5933 77.759 62.8546 74.2098C59.5954 71.1234 57.768 70.3886 54.5088 74.2098Z" fill="#5A8D3E" stroke="#1B2312" stroke-width="2"/>
<path d="M134.605 202.648H140.864" stroke="#0641FD" stroke-width="5"/>
<path d="M136.52 200V243.742" stroke="#0641FF" stroke-width="6"/>
</svg>
