<svg width="58" height="55" viewBox="0 0 58 55" fill="none" xmlns="http://www.w3.org/2000/svg">
<path d="M24.7151 23.8104C23.3657 23.8104 22.3004 24.9562 22.3004 26.3542C22.3004 27.7521 23.3894 28.8979 24.7151 28.8979C26.0645 28.8979 27.1298 27.7521 27.1298 26.3542C27.1535 24.9562 26.0645 23.8104 24.7151 23.8104ZM33.3559 23.8104C32.0065 23.8104 30.9412 24.9562 30.9412 26.3542C30.9412 27.7521 32.0302 28.8979 33.3559 28.8979C34.7053 28.8979 35.7706 27.7521 35.7706 26.3542C35.7706 24.9562 34.7053 23.8104 33.3559 23.8104Z" fill="white"/>
<path d="M44.8612 4.58334H13.1388C10.4637 4.58334 8.28571 6.69167 8.28571 9.30417V40.2875C8.28571 42.9 10.4637 45.0083 13.1388 45.0083H39.9845L38.7298 40.7688L41.76 43.4958L44.6245 46.0625L49.7143 50.4167V9.30417C49.7143 6.69167 47.5363 4.58334 44.8612 4.58334ZM35.7233 34.5125C35.7233 34.5125 34.871 33.5271 34.1608 32.6563C37.262 31.8083 38.4457 29.9292 38.4457 29.9292C37.4751 30.5479 36.5518 30.9833 35.7233 31.2813C34.5396 31.7625 33.4033 32.0833 32.2906 32.2667C30.0179 32.6792 27.9347 32.5646 26.1592 32.2438C24.8098 31.9917 23.6498 31.625 22.6792 31.2583C22.1347 31.0521 21.5428 30.8 20.951 30.4792C20.88 30.4333 20.809 30.4104 20.738 30.3646C20.6906 30.3417 20.6669 30.3188 20.6433 30.2958C20.2171 30.0667 19.9804 29.9063 19.9804 29.9063C19.9804 29.9063 21.1167 31.7396 24.1233 32.6104C23.4131 33.4813 22.5371 34.5125 22.5371 34.5125C17.3053 34.3521 15.3167 31.0292 15.3167 31.0292C15.3167 23.65 18.7257 17.6688 18.7257 17.6688C22.1347 15.1938 25.378 15.2625 25.378 15.2625L25.6147 15.5375C21.3535 16.7292 19.3886 18.5396 19.3886 18.5396C19.3886 18.5396 19.9094 18.2646 20.7853 17.875C23.3184 16.7979 25.3306 16.5 26.1592 16.4313C26.3012 16.4083 26.4196 16.3854 26.5616 16.3854C28.0057 16.2021 29.6392 16.1563 31.3437 16.3396C33.5926 16.5917 36.0073 17.2333 38.4694 18.5396C38.4694 18.5396 36.5992 16.8208 32.5747 15.6292L32.9061 15.2625C32.9061 15.2625 36.1494 15.1938 39.5584 17.6688C39.5584 17.6688 42.9673 23.65 42.9673 31.0292C42.9673 31.0292 40.9551 34.3521 35.7233 34.5125V34.5125Z" fill="white"/>
</svg>
